<svg width="69" height="68" viewBox="0 0 69 68" fill="none" xmlns="http://www.w3.org/2000/svg">
<path d="M50.2656 6.375H19.8781C16.7094 6.375 14.1406 8.94377 14.1406 12.1125V55.7742C14.1406 58.9429 16.7094 61.5117 19.8781 61.5117H50.2656C53.4344 61.5117 56.0031 58.9429 56.0031 55.7742V12.1125C56.0031 8.94377 53.4344 6.375 50.2656 6.375Z" stroke="#54565A" stroke-width="1.5" stroke-linecap="round" stroke-linejoin="round"/>
<path d="M27.3164 47.1323H42.8289" stroke="#54565A" stroke-width="1.5" stroke-linecap="round" stroke-linejoin="round"/>
<path d="M39.7708 25.3727C39.7708 27.8802 37.7308 29.9202 35.2233 29.9202C32.7158 29.9202 30.6758 27.8802 30.6758 25.3727C30.6758 22.8652 32.7158 20.8252 35.2233 20.8252C37.7308 20.8252 39.7708 22.8652 39.7708 25.3727Z" stroke="#009845" stroke-width="1.5" stroke-linecap="round" stroke-linejoin="round"/>
<path d="M26.6797 36.1254C27.8414 32.5271 31.2272 29.9204 35.2222 29.9204C39.2172 29.9204 42.5039 32.4562 43.708 35.9837" stroke="#009845" stroke-width="1.5" stroke-linecap="round" stroke-linejoin="round"/>
<path d="M47.051 27.7101C47.051 34.2976 41.7102 39.6242 35.1368 39.6242C28.5635 39.6242 23.2227 34.2834 23.2227 27.7101C23.2227 21.1367 28.5635 15.7959 35.1368 15.7959C41.7102 15.7959 47.051 21.1367 47.051 27.7101Z" stroke="#009845" stroke-width="1.5" stroke-linecap="round" stroke-linejoin="round"/>
<path d="M10.4609 48.3931H17.9834" stroke="#54565A" stroke-width="1.5" stroke-linecap="round" stroke-linejoin="round"/>
<path d="M10.4609 33.9434H17.9834" stroke="#54565A" stroke-width="1.5" stroke-linecap="round" stroke-linejoin="round"/>
<path d="M10.4609 19.5073H17.9834" stroke="#54565A" stroke-width="1.5" stroke-linecap="round" stroke-linejoin="round"/>
</svg>
