<svg width="28" height="48" viewBox="0 0 28 48" fill="none" xmlns="http://www.w3.org/2000/svg">
<path fill-rule="evenodd" clip-rule="evenodd" d="M19.8913 9.20695C19.9027 4.1303 14.3425 0.0126108 9.26355 0.332056C4.18456 0.651501 0.0579572 5.0259 0.0465136 10.1026L0.0465275 35.7741C0.0311961 42.5752 6.48086 47.4284 12.5187 47.4284C18.5565 47.4284 27.445 46.8014 27.445 35.7741L27.445 9.1202L22.6146 9.20697L22.6147 35.7741C22.6028 41.0444 18.9992 42.2663 13.7264 42.598C8.89602 42.598 5.26152 41.0444 5.2734 35.7741L5.27339 10.1026C5.27333 6.37005 6.48093 3.95486 10.1037 3.95486C13.7265 3.95486 15.0689 6.55675 15.0609 10.1026L15.0609 33.3589C15.0568 35.1802 15.0609 35.7741 13.8533 35.7741C12.6457 35.7741 12.6416 35.1802 12.6457 33.3589L12.6457 9.12016L7.81532 9.12017L7.81533 33.3589C7.80777 36.711 10.5965 38.1893 13.8533 38.1893C17.4761 38.1893 19.8838 36.7111 19.8913 33.3589L19.8913 9.20695Z" fill="#999999"/>
</svg>
