<svg width="24" height="24" viewBox="0 0 24 24" fill="none" xmlns="http://www.w3.org/2000/svg">
<path d="M12 0C18.6274 0 24 5.37258 24 12C24 18.6274 18.6274 24 12 24C5.37258 24 0 18.6274 0 12C0 5.37258 5.37258 0 12 0ZM12 3C7.02944 3 3 7.02944 3 12C3 16.9706 7.02944 21 12 21C16.9706 21 21 16.9706 21 12C21 7.02944 16.9706 3 12 3ZM18.0342 10.0869L11.7314 16.0869L10.6973 17.0713L9.66309 16.0869L5.96582 12.5674L7 11.4805L8.03418 10.3945L10.6963 12.9287L15.9658 7.91309L18.0342 10.0869Z" fill="#00B140"/>
</svg>
