<svg width="16" height="15" viewBox="0 0 16 15" fill="none" xmlns="http://www.w3.org/2000/svg">
<path fill-rule="evenodd" clip-rule="evenodd" d="M5.42671 8.77271H9.72802C12.6975 8.77271 15.1047 10.6043 15.1047 12.8637V14.5H0.0500488V12.8637C0.0500488 10.6043 2.45726 8.77271 5.42671 8.77271ZM5.42671 9.59088C3.05115 9.59088 1.12538 11.0561 1.12538 12.8637V13.6818H14.0293V12.8637C14.0293 11.0561 12.1036 9.59088 9.72802 9.59088H5.42671Z" fill="#808080" stroke="#808080" stroke-width="0.1"/>
<path d="M7.57743 6.22731C9.20417 6.22731 10.5229 4.94521 10.5229 3.36365C10.5229 1.7821 9.20417 0.5 7.57743 0.5C5.95069 0.5 4.63196 1.7821 4.63196 3.36365C4.63196 4.94521 5.95069 6.22731 7.57743 6.22731Z" stroke="#808080"/>
</svg>
