<svg width="18" height="15" viewBox="0 0 18 15" fill="none" xmlns="http://www.w3.org/2000/svg">
<path fill-rule="evenodd" clip-rule="evenodd" d="M16.0493 15C17.0163 15 17.446 14.25 16.9088 13.3929L9.49527 0.642857C8.95808 -0.214286 8.09855 -0.214286 7.5613 0.642857L0.184289 13.5145C-0.249613 14.3197 0.0914757 15 1.11474 15H16.0493ZM1.18214 13.9286L8.51704 1.12768C8.52436 1.1112 8.52847 1.09796 8.53075 1.07893L8.53283 1.09248L8.54764 1.13719L8.56904 1.18142L15.9809 13.9286H1.18214ZM8.57143 12.5893C9.01522 12.5893 9.37501 12.2295 9.37501 11.7857C9.37501 11.3419 9.01522 10.9821 8.57143 10.9821C8.12764 10.9821 7.76784 11.3419 7.76784 11.7857C7.76784 12.2295 8.12764 12.5893 8.57143 12.5893Z" fill="#808080"/>
<path fill-rule="evenodd" clip-rule="evenodd" d="M9.10708 4.28564H8.03571V9.64279H9.10708V4.28564Z" fill="#808080"/>
</svg>
