<svg width="33" height="33" viewBox="0 0 33 33" fill="none" xmlns="http://www.w3.org/2000/svg">
<path fill-rule="evenodd" clip-rule="evenodd" d="M30.8949 30.9375C32.7563 30.9375 33.5836 29.4938 32.5495 27.8438L18.2784 3.3C17.2443 1.65 15.5897 1.65 14.5555 3.3L0.354756 28.0779C-0.480504 29.628 0.176091 30.9375 2.14587 30.9375H30.8949ZM2.27562 28.875L16.3953 4.23328C16.4094 4.20156 16.4173 4.17608 16.4217 4.13944L16.4257 4.16552L16.4542 4.2516L16.4954 4.33673L30.7633 28.875H2.27562ZM16.5 26.2969C17.3543 26.2969 18.0469 25.6043 18.0469 24.75C18.0469 23.8957 17.3543 23.2031 16.5 23.2031C15.6457 23.2031 14.9531 23.8957 14.9531 24.75C14.9531 25.6043 15.6457 26.2969 16.5 26.2969Z" fill="#19426C"/>
<path fill-rule="evenodd" clip-rule="evenodd" d="M17.5312 10.3125H15.4688V20.625H17.5312V10.3125Z" fill="#19426C"/>
</svg>
