<svg width="68" height="68" viewBox="0 0 68 68" fill="none" xmlns="http://www.w3.org/2000/svg">
<path d="M3.99661 34.0143V25.1885H1.80078" stroke="#54565A" stroke-width="1.5" stroke-linecap="round" stroke-linejoin="round"/>
<path d="M65.8219 29.1837V30.8412C65.8219 32.3712 64.5894 33.6037 63.0594 33.6037C61.5294 33.6037 60.2969 32.3712 60.2969 30.8412V27.5262C60.2969 25.9962 61.5294 24.7637 63.0594 24.7637C64.5894 24.7637 65.8219 25.9962 65.8219 27.5262V29.1837Z" stroke="#54565A" stroke-width="1.5" stroke-linecap="round" stroke-linejoin="round"/>
<path d="M32.2594 51.3401C44.7622 51.3401 54.8978 41.2046 54.8978 28.7018C54.8978 16.199 44.7622 6.06348 32.2594 6.06348C19.7566 6.06348 9.62109 16.199 9.62109 28.7018C9.62109 41.2046 19.7566 51.3401 32.2594 51.3401Z" stroke="#54565A" stroke-width="1.5" stroke-linecap="round" stroke-linejoin="round"/>
<path d="M44.3867 47.9683L57.3776 60.9875C59.2476 62.8575 62.2934 62.8575 64.1634 60.9875C66.0334 59.1033 66.0334 56.0717 64.1634 54.2017L51.3992 41.4092" stroke="#54565A" stroke-width="1.5" stroke-linecap="round" stroke-linejoin="round"/>
<path d="M36.4509 28.8999V31.2657C36.4509 33.4474 34.6942 35.204 32.5126 35.204C30.3309 35.204 28.5742 33.4474 28.5742 31.2657V26.534C28.5742 24.3524 30.3309 22.5957 32.5126 22.5957C34.6942 22.5957 36.4509 24.3524 36.4509 26.534V28.8999Z" stroke="#009845" stroke-width="1.5" stroke-linecap="round" stroke-linejoin="round"/>
<path d="M20.8677 35.3598V22.7656H17.7227" stroke="#009845" stroke-width="1.5" stroke-linecap="round" stroke-linejoin="round"/>
<path d="M45.6723 35.3032V22.6948H42.5273" stroke="#009845" stroke-width="1.5" stroke-linecap="round" stroke-linejoin="round"/>
</svg>
