<svg width="68" height="68" viewBox="0 0 68 68" fill="none" xmlns="http://www.w3.org/2000/svg">
<path d="M39.5411 23.7576L44.7544 14.7476L39.3711 24.0692" stroke="#54565A" stroke-width="1.5" stroke-linecap="round" stroke-linejoin="round"/>
<path d="M26.6925 20.7117L23.25 14.7476L28.2367 23.3609" stroke="#54565A" stroke-width="1.5" stroke-linecap="round" stroke-linejoin="round"/>
<path d="M12.5117 33.3623H26.6926" stroke="#54565A" stroke-width="1.5" stroke-linecap="round" stroke-linejoin="round"/>
<path d="M64.2345 33.3624C64.2345 35.7707 62.2795 37.7257 59.8711 37.7257C57.4628 37.7257 55.5078 35.7707 55.5078 33.3624C55.5078 30.954 57.4628 28.999 59.8711 28.999C62.2795 28.999 64.2345 30.954 64.2345 33.3624Z" stroke="#54565A" stroke-width="1.5" stroke-linecap="round" stroke-linejoin="round"/>
<path d="M8.13286 37.7257C10.5427 37.7257 12.4962 35.7722 12.4962 33.3624C12.4962 30.9526 10.5427 28.999 8.13286 28.999C5.72306 28.999 3.76953 30.9526 3.76953 33.3624C3.76953 35.7722 5.72306 37.7257 8.13286 37.7257Z" stroke="#54565A" stroke-width="1.5" stroke-linecap="round" stroke-linejoin="round"/>
<path d="M49.1175 7.18218C51.2 8.38635 51.9225 11.0638 50.7184 13.1463C49.5142 15.2288 46.8367 15.9513 44.7542 14.7472C42.6717 13.543 41.9492 10.8655 43.1534 8.78302C44.3575 6.70052 47.035 5.97802 49.1175 7.18218Z" stroke="#54565A" stroke-width="1.5" stroke-linecap="round" stroke-linejoin="round"/>
<path d="M23.2504 51.9771C25.3329 53.1813 26.0554 55.8588 24.8512 57.9413C23.647 60.0238 20.9695 60.7463 18.887 59.5421C16.8045 58.3379 16.082 55.6604 17.2862 53.5779C18.4904 51.4954 21.1679 50.7729 23.2504 51.9771Z" stroke="#54565A" stroke-width="1.5" stroke-linecap="round" stroke-linejoin="round"/>
<path d="M18.8862 7.18234C20.9687 5.97817 23.6462 6.68651 24.8504 8.78317C26.0545 10.8657 25.3462 13.5432 23.2495 14.7473C21.167 15.9515 18.4895 15.2432 17.2854 13.1465C16.0812 11.064 16.7895 8.38651 18.8862 7.18234Z" stroke="#54565A" stroke-width="1.5" stroke-linecap="round" stroke-linejoin="round"/>
<path d="M44.7534 51.9773C46.8359 50.7731 49.5134 51.4814 50.7176 53.5781C51.9217 55.6606 51.2134 58.3381 49.1167 59.5423C47.0342 60.7464 44.3567 60.0381 43.1526 57.9414C41.9484 55.8589 42.6567 53.1814 44.7534 51.9773Z" stroke="#54565A" stroke-width="1.5" stroke-linecap="round" stroke-linejoin="round"/>
<path d="M27.5425 44.5538L23.25 51.9771L28.2367 43.3496" stroke="#54565A" stroke-width="1.5" stroke-linecap="round" stroke-linejoin="round"/>
<path d="M55.4918 33.3623H41.4102" stroke="#54565A" stroke-width="1.5" stroke-linecap="round" stroke-linejoin="round"/>
<path d="M39.4273 42.7691L44.754 51.9775L39.3281 42.585" stroke="#54565A" stroke-width="1.5" stroke-linecap="round" stroke-linejoin="round"/>
<path d="M57.3479 28.999L53.3954 22.1565L49.457 15.3281L57.3479 28.999Z" stroke="#54565A" stroke-width="1.5" stroke-linecap="round" stroke-linejoin="round"/>
<path d="M49.5 51.3256L53.3958 44.5539L57.3483 37.7256L49.5 51.3256Z" stroke="#54565A" stroke-width="1.5" stroke-linecap="round" stroke-linejoin="round"/>
<path d="M25.7422 55.7598H34.0014H42.0622H25.7422Z" stroke="#54565A" stroke-width="1.5" stroke-linecap="round" stroke-linejoin="round"/>
<path d="M10.5117 37.4707L14.6059 44.554L18.5442 51.3965L10.5117 37.4707Z" stroke="#54565A" stroke-width="1.5" stroke-linecap="round" stroke-linejoin="round"/>
<path d="M18.5471 15.3281L14.6088 22.1565L10.543 29.1831L18.5471 15.3281Z" stroke="#54565A" stroke-width="1.5" stroke-linecap="round" stroke-linejoin="round"/>
<path d="M42.0622 10.9648H34.0014H25.7422H42.0622Z" stroke="#54565A" stroke-width="1.5" stroke-linecap="round" stroke-linejoin="round"/>
<path d="M33.9862 28.7867C38 28.7867 41.2537 27.5752 41.2537 26.0808C41.2537 24.5864 38 23.375 33.9862 23.375C29.9725 23.375 26.7188 24.5864 26.7188 26.0808C26.7188 27.5752 29.9725 28.7867 33.9862 28.7867Z" stroke="#009845" stroke-width="1.5" stroke-linecap="round" stroke-linejoin="round"/>
<path d="M41.2694 31.209C41.2694 32.5973 38.011 33.7306 34.0019 33.7306C29.9927 33.7306 26.7344 32.6115 26.7344 31.209" stroke="#009845" stroke-width="1.5" stroke-linecap="round" stroke-linejoin="round"/>
<path d="M41.2537 36.21C41.2537 37.5983 37.9954 38.7316 33.9862 38.7316C29.9771 38.7316 26.7188 37.6125 26.7188 36.21" stroke="#009845" stroke-width="1.5" stroke-linecap="round" stroke-linejoin="round"/>
<path d="M41.2537 40.8423C41.2537 42.2306 37.9954 43.364 33.9862 43.364C29.9771 43.364 26.7188 42.2448 26.7188 40.8423" stroke="#009845" stroke-width="1.5" stroke-linecap="round" stroke-linejoin="round"/>
<path d="M26.7344 40.8427V26.0811" stroke="#009845" stroke-width="1.5" stroke-linecap="round" stroke-linejoin="round"/>
<path d="M41.2539 26.0811V40.8427" stroke="#009845" stroke-width="1.5" stroke-linecap="round" stroke-linejoin="round"/>
</svg>
