<svg width="15" height="15" viewBox="0 0 15 15" fill="none" xmlns="http://www.w3.org/2000/svg">
<g clip-path="url(#clip0_734_996)">
<path fill-rule="evenodd" clip-rule="evenodd" d="M9.06298 14.4766C8.6189 14.8097 7.98316 14.6759 7.71102 14.1921L3.72 7.09692L3.72 1.3952C3.72 0.624761 4.34456 0.000198414 5.115 0.000198414L11.1412 0.000198414C12.1857 0.000198414 13.1019 0.696619 13.3814 1.70292L14.6731 6.3528C15.0846 7.83429 13.9705 9.30008 12.4329 9.30008L9.08552 9.30008L9.92082 11.1795C10.4384 12.3442 10.0826 13.7119 9.06298 14.4766Z" fill="#19426C"/>
<path d="M0 6.5101C0 7.02372 0.416381 7.4401 0.930009 7.44009L1.86001 7.44009C2.37363 7.44008 2.79 7.02371 2.79 6.51009L2.79 0.930033C2.79 0.416404 2.37362 2.81255e-05 1.85999 3.3447e-05L0.92999 4.23162e-05C0.416369 4.76377e-05 0 0.416422 0 0.930042L0 6.5101Z" fill="#19426C"/>
</g>
<defs>
<clipPath id="clip0_734_996">
<rect width="14.88" height="14.88" fill="white" transform="matrix(1 0 0 -1 0 14.88)"/>
</clipPath>
</defs>
</svg>
