<svg width="15" height="15" viewBox="0 0 15 15" fill="none" xmlns="http://www.w3.org/2000/svg">
<g clip-path="url(#clip0_508_3539)">
<path fill-rule="evenodd" clip-rule="evenodd" d="M9.09205 14.6851C8.63924 14.9568 8.05149 14.801 7.79261 14.3408L4.34991 8.22045C4.18734 8.35597 3.97819 8.4375 3.75001 8.4375L0.937505 8.43751C0.419736 8.43752 -5.94568e-07 8.01778 -6.39833e-07 7.50001L-1.21354e-06 0.937542C-1.25881e-06 0.419778 0.419728 4.38323e-05 0.937493 4.28334e-05L3.74999 2.44677e-05C4.12514 2.15739e-05 4.44882 0.220365 4.59867 0.538692C5.00442 0.202243 5.52547 -9.06612e-06 6.09375 -9.1158e-06L11.2311 -9.56492e-06C12.2839 -9.65696e-06 13.2076 0.702027 13.4893 1.71644L14.7914 6.40382C15.2063 7.89725 14.0831 9.37487 12.5332 9.37487L9.62754 9.37487L10.3675 11.0397C10.9445 12.338 10.4626 13.8627 9.24439 14.5937L9.09205 14.6851ZM4.6875 2.34374L4.6875 6.90837L8.60971 13.8812L8.76205 13.7898C9.57422 13.3025 9.89544 12.286 9.51077 11.4205L8.18496 8.43737L12.5332 8.43737C13.4632 8.43737 14.137 7.5508 13.8881 6.65474L12.586 1.96736C12.417 1.35871 11.8628 0.93749 11.2311 0.93749L6.09375 0.937491C5.3171 0.937491 4.6875 1.56709 4.6875 2.34374ZM3.75 7.5L3.75 0.937524L0.937499 0.937542L0.937499 7.50001L3.75 7.5Z" fill="#19426C"/>
</g>
<defs>
<clipPath id="clip0_508_3539">
<rect width="15" height="15" fill="white" transform="matrix(1 -8.74228e-08 -8.74228e-08 -1 0 15)"/>
</clipPath>
</defs>
</svg>
