<svg width="33px" height="33px" viewBox="0 0 33 33" fill="none" xmlns="http://www.w3.org/2000/svg">
<path d="M6.29126 6.29115C5.88853 6.69388 5.88853 7.34683 6.29126 7.74956L13.6275 15.0858C14.4085 15.8668 14.4085 17.1332 13.6275 17.9142L6.29122 25.2505C5.88849 25.6532 5.88849 26.3062 6.29122 26.7089V26.7089C6.69394 27.1116 7.34689 27.1116 7.74962 26.7089L15.0859 19.3726C15.8669 18.5916 17.1333 18.5916 17.9143 19.3726L25.2506 26.7089C25.6533 27.1116 26.3062 27.1116 26.709 26.7089V26.7089C27.1117 26.3061 27.1117 25.6532 26.709 25.2505L19.3727 17.9142C18.5917 17.1332 18.5917 15.8668 19.3727 15.0858L26.7089 7.74958C27.1117 7.34685 27.1117 6.6939 26.7089 6.29117V6.29117C26.3062 5.88845 25.6532 5.88845 25.2505 6.29118L17.9143 13.6274C17.1333 14.4084 15.8669 14.4084 15.0859 13.6274L7.74967 6.29115C7.34694 5.88842 6.69399 5.88842 6.29126 6.29115V6.29115Z" fill="#8B8B8B"/>
</svg>
