<svg width="18" height="19" viewBox="0 0 18 19" fill="none" xmlns="http://www.w3.org/2000/svg">
<path d="M9.59143 12.0212V9.41878C9.59143 9.10845 9.84198 8.85791 10.1442 8.85791C10.4463 8.85791 10.6969 9.11218 10.6969 9.41878V10.0731" stroke="#808080" stroke-width="0.5" stroke-linecap="round" stroke-linejoin="round"/>
<path d="M8.88062 12.2231H10.8704" stroke="#767676" stroke-width="0.5" stroke-linecap="round" stroke-linejoin="round"/>
<path d="M8.88028 13.2553C8.88028 13.4423 9.02768 13.5918 9.21191 13.5918H9.23037C9.38145 13.5918 9.51779 13.6741 9.6099 13.7975C9.66887 13.876 9.76466 13.9283 9.87151 13.9283C9.97837 13.9283 10.0742 13.876 10.1332 13.7975C10.2253 13.6741 10.3616 13.5918 10.5127 13.5918H10.5311C10.7153 13.5918 10.8628 13.4423 10.8628 13.2553V12.2233C10.8628 11.5989 11.0986 10.9745 11.5666 10.4996C12.5688 9.4826 12.4988 7.79253 11.3639 6.869C10.498 6.16606 9.24139 6.16606 8.37547 6.869C7.23687 7.79253 7.17052 9.4826 8.17282 10.4996C8.6408 10.9745 8.8766 11.5989 8.8766 12.2233V13.2515" stroke="#767676" stroke-width="0.5" stroke-linecap="round" stroke-linejoin="round"/>
<path d="M10.3908 12.9076L9.35901 13.0534" stroke="#808080" stroke-width="0.5" stroke-linecap="round" stroke-linejoin="round"/>
<path d="M9.87537 4.53589V5.45569" stroke="#808080" stroke-width="0.5" stroke-linecap="round" stroke-linejoin="round"/>
<path d="M11.9422 5.10022L11.489 5.89291" stroke="#808080" stroke-width="0.5" stroke-linecap="round" stroke-linejoin="round"/>
<path d="M13.4567 6.63721L12.6719 7.09338" stroke="#808080" stroke-width="0.5" stroke-linecap="round" stroke-linejoin="round"/>
<path d="M14.0099 8.73462H13.1071" stroke="#808080" stroke-width="0.5" stroke-linecap="round" stroke-linejoin="round"/>
<path d="M13.4567 10.8325L12.6719 10.3726" stroke="#808080" stroke-width="0.5" stroke-linecap="round" stroke-linejoin="round"/>
<path d="M6.2937 10.8325L7.07857 10.3726" stroke="#808080" stroke-width="0.5" stroke-linecap="round" stroke-linejoin="round"/>
<path d="M5.74097 8.73462H6.64376" stroke="#808080" stroke-width="0.5" stroke-linecap="round" stroke-linejoin="round"/>
<path d="M6.2937 6.63721L7.07857 7.09338" stroke="#808080" stroke-width="0.5" stroke-linecap="round" stroke-linejoin="round"/>
<path d="M7.80823 5.10022L8.26146 5.89291" stroke="#808080" stroke-width="0.5" stroke-linecap="round" stroke-linejoin="round"/>
<path d="M0.25 4H2.46739" stroke="#767676" stroke-width="0.5" stroke-linecap="round" stroke-linejoin="round"/>
<path d="M0.25 9.24988H2.46739" stroke="#767676" stroke-width="0.5" stroke-linecap="round" stroke-linejoin="round"/>
<path d="M0.25 14.5H2.46739" stroke="#767676" stroke-width="0.5" stroke-linecap="round" stroke-linejoin="round"/>
<path d="M17.25 17.5V1C17.25 0.585786 16.9191 0.25 16.5109 0.25H3.20654C2.79833 0.25 2.46741 0.585786 2.46741 1V17.5C2.46741 17.9142 2.79833 18.25 3.20654 18.25H16.5109C16.9191 18.25 17.25 17.9142 17.25 17.5Z" stroke="#808080" stroke-width="0.5" stroke-linecap="round" stroke-linejoin="round"/>
</svg>
