<svg width="17" height="17" viewBox="0 0 17 17" fill="none" xmlns="http://www.w3.org/2000/svg">
<g clip-path="url(#clip0_505_1002)">
<path fill-rule="evenodd" clip-rule="evenodd" d="M8.5 15.9375C12.6076 15.9375 15.9375 12.6076 15.9375 8.5C15.9375 4.39238 12.6076 1.0625 8.5 1.0625C4.39238 1.0625 1.0625 4.39238 1.0625 8.5C1.0625 12.6076 4.39238 15.9375 8.5 15.9375ZM8.5 17C13.1944 17 17 13.1944 17 8.5C17 3.80558 13.1944 0 8.5 0C3.80558 0 0 3.80558 0 8.5C0 13.1944 3.80558 17 8.5 17Z" fill="#404040"/>
<path fill-rule="evenodd" clip-rule="evenodd" d="M9.75905 14.1373C10.2807 12.7464 10.625 10.7535 10.625 8.5C10.625 6.24647 10.2807 4.25361 9.75905 2.86266C9.49678 2.16327 9.21012 1.67108 8.94569 1.37284C8.68017 1.07336 8.52713 1.0625 8.5 1.0625C8.47287 1.0625 8.31983 1.07336 8.05431 1.37284C7.78988 1.67108 7.50322 2.16327 7.24095 2.86266C6.71934 4.25361 6.375 6.24647 6.375 8.5C6.375 10.7535 6.71934 12.7464 7.24095 14.1373C7.50322 14.8367 7.78988 15.3289 8.05431 15.6272C8.31983 15.9266 8.47287 15.9375 8.5 15.9375C8.52713 15.9375 8.68017 15.9266 8.94569 15.6272C9.21012 15.3289 9.49678 14.8367 9.75905 14.1373ZM8.5 17C10.2604 17 11.6875 13.1944 11.6875 8.5C11.6875 3.80558 10.2604 0 8.5 0C6.73959 0 5.3125 3.80558 5.3125 8.5C5.3125 13.1944 6.73959 17 8.5 17Z" fill="#404040"/>
<path fill-rule="evenodd" clip-rule="evenodd" d="M1.60281 4.58904L1.04992 5.51052C2.49637 6.65922 5.29044 7.43748 8.49999 7.43748C11.7095 7.43748 14.5036 6.65922 15.9501 5.51052L15.3972 4.58904C15.092 4.85363 14.6565 5.12461 14.0845 5.37486C12.7097 5.97635 10.7361 6.37498 8.49999 6.37498C6.26388 6.37498 4.29027 5.97635 2.91545 5.37486C2.34345 5.12461 1.90801 4.85363 1.60281 4.58904Z" fill="#404040"/>
<path fill-rule="evenodd" clip-rule="evenodd" d="M0 8.5C0 10.8472 3.80558 12.75 8.5 12.75C13.1944 12.75 17 10.8472 17 8.5H15.9375C15.9375 9.05435 15.4605 9.84225 14.0352 10.5549C12.6735 11.2357 10.718 11.6875 8.5 11.6875C6.28197 11.6875 4.32645 11.2357 2.96476 10.5549C1.53951 9.84225 1.0625 9.05435 1.0625 8.5H0Z" fill="#404040"/>
</g>
<defs>
<clipPath id="clip0_505_1002">
<rect width="17" height="17" fill="white"/>
</clipPath>
</defs>
</svg>
