<svg width="15" height="15" viewBox="0 0 15 15" fill="none" xmlns="http://www.w3.org/2000/svg">
<g clip-path="url(#clip0_729_1086)">
<path fill-rule="evenodd" clip-rule="evenodd" d="M9.06298 0.403378C8.6189 0.0703163 7.98316 0.20413 7.71102 0.687942L3.72 7.78308V13.4848C3.72 14.2552 4.34456 14.8798 5.115 14.8798H11.1412C12.1857 14.8798 13.1019 14.1834 13.3814 13.1771L14.6731 8.5272C15.0846 7.04572 13.9705 5.57992 12.4329 5.57992H9.08552L9.92082 3.70048C10.4384 2.53585 10.0826 1.16806 9.06298 0.403378Z" fill="#19426C"/>
<path d="M0 8.36991C0 7.85628 0.416381 7.43991 0.930009 7.43991L1.86001 7.43992C2.37363 7.43992 2.79 7.8563 2.79 8.36992V13.95C2.79 14.4636 2.37362 14.88 1.85999 14.88L0.92999 14.88C0.416369 14.88 0 14.4636 0 13.95V8.36991Z" fill="#19426C"/>
</g>
<defs>
<clipPath id="clip0_729_1086">
<rect width="14.88" height="14.88" fill="white"/>
</clipPath>
</defs>
</svg>
