<svg width="15" height="15" viewBox="0 0 15 15" fill="none" xmlns="http://www.w3.org/2000/svg">
<g clip-path="url(#clip0_508_3253)">
<path fill-rule="evenodd" clip-rule="evenodd" d="M9.09205 0.31492C8.63924 0.0432352 8.05149 0.198957 7.7926 0.6592L4.34991 6.77955C4.18734 6.64403 3.97819 6.5625 3.75001 6.5625L0.937505 6.56249C0.419736 6.56248 0 6.98222 0 7.49999V14.0625C0 14.5802 0.419729 15 0.937494 15L3.74999 15C4.12514 15 4.44882 14.7796 4.59867 14.4613C5.00442 14.7978 5.52547 15 6.09375 15H11.2311C12.2839 15 13.2076 14.298 13.4893 13.2836L14.7914 8.59617C15.2063 7.10274 14.0831 5.62513 12.5332 5.62513H9.62754L10.3675 3.96028C10.9445 2.66201 10.4626 1.13728 9.24439 0.406325L9.09205 0.31492ZM4.6875 12.6563V8.09163L8.60971 1.11882L8.76205 1.21022C9.57422 1.69753 9.89544 2.71401 9.51077 3.57953L8.18496 6.56263H12.5332C13.4632 6.56263 14.137 7.4492 13.8881 8.34526L12.586 13.0326C12.417 13.6413 11.8628 14.0625 11.2311 14.0625H6.09375C5.3171 14.0625 4.6875 13.4329 4.6875 12.6563ZM3.75 7.5V14.0625L0.9375 14.0625L0.9375 7.49999L3.75 7.5Z" fill="#19426C"/>
</g>
<defs>
<clipPath id="clip0_508_3253">
<rect width="15" height="15" fill="white"/>
</clipPath>
</defs>
</svg>
