<svg width="166" height="160" viewBox="0 0 166 160" fill="none" xmlns="http://www.w3.org/2000/svg">
<path d="M79.9299 143.436C44.8345 143.436 16.4239 115.025 16.4239 79.9299C16.4239 65.0042 21.5528 51.3464 30.1394 40.5124L18.5562 28.7563C6.97297 42.6446 0 60.4516 0 79.9299C0 124.073 35.7869 159.86 79.9299 159.86C99.0623 159.86 116.581 153.117 130.354 141.937L118.771 130.181C107.995 138.48 94.5673 143.436 79.9299 143.436Z" fill="#54565A"/>
<path d="M141.361 130.815L142.283 129.893C153.232 116.235 159.802 98.8318 159.802 79.9299C159.802 35.7869 124.015 0 79.8722 0C60.855 0 43.3938 6.62721 29.6783 17.7494C25.702 20.9766 22.0715 24.4919 18.7867 28.4105C18.6714 28.5258 18.6138 28.6411 18.4985 28.7563L30.0817 40.5124C30.197 40.3971 30.2546 40.2819 30.3699 40.109C33.5394 36.1327 37.2276 32.6174 41.2615 29.5055C51.9803 21.3223 65.35 16.4239 79.8722 16.4239C114.968 16.4239 143.378 44.8345 143.378 79.9299C143.378 94.7402 138.307 108.34 129.836 119.117C126.781 123.036 123.266 126.551 119.347 129.663C119.117 129.836 118.944 129.951 118.713 130.124L130.297 141.88L143.954 155.711H165.968L141.361 130.815Z" fill="#009845"/>
</svg>
