<svg width="21" height="21" viewBox="0 0 21 21" fill="none" xmlns="http://www.w3.org/2000/svg">
<g clip-path="url(#clip0_741_966)">
<path d="M1.82415 13.0946C1.82415 13.0946 1.11304 13.1989 0.609292 13.7027C0.105545 14.2065 0 14.9189 0 14.9189L0.000431905 19.7838V21H1.21664L6.08223 21C6.08223 21 6.85046 20.8399 7.29844 20.3919C7.74642 19.9439 7.90519 19.1757 7.90519 19.1757H3.04036L9.7295 12.4865C9.7295 12.4865 10.3379 11.8784 9.72984 11.2703C9.12179 10.6622 8.5133 11.2703 8.5133 11.2703L1.82415 17.9595V13.0946Z" fill="#8B8B8B"/>
<path d="M19.1758 7.9054C19.1758 7.9054 19.887 7.80109 20.3907 7.2973C20.8945 6.7935 21 6.08108 21 6.08108L20.9996 1.21622L20.9996 0L19.7834 1.06362e-07L14.9178 -4.21949e-07C14.9178 -4.21949e-07 14.1495 0.160124 13.7016 0.608109C13.2536 1.05609 13.0948 1.82432 13.0948 1.82432L17.9596 1.82432L11.2705 8.51351C11.2705 8.51351 10.6621 9.12162 11.2702 9.72973C11.8782 10.3378 12.4867 9.72973 12.4867 9.72973L19.1758 3.04054L19.1758 7.9054Z" fill="#8B8B8B"/>
</g>
<defs>
<clipPath id="clip0_741_966">
<rect width="21" height="21" fill="white"/>
</clipPath>
</defs>
</svg>
