<svg width="70" height="70" viewBox="0 0 70 70" fill="none" xmlns="http://www.w3.org/2000/svg">
<circle cx="35" cy="35" r="35" fill="#009845" fill-opacity="0.1"/>
<path fill-rule="evenodd" clip-rule="evenodd" d="M20 33.625V29.5H22.75V33.625C22.75 40.4595 28.2905 46 35.125 46C41.9595 46 47.5 40.4595 47.5 33.625V29.5H50.25V33.625C50.25 41.9783 43.4783 48.75 35.125 48.75C26.7717 48.75 20 41.9783 20 33.625Z" fill="#009845"/>
<path fill-rule="evenodd" clip-rule="evenodd" d="M33.75 57V47.375H36.5V57H33.75Z" fill="#009845"/>
<path fill-rule="evenodd" clip-rule="evenodd" d="M43.375 57H26.875V54.25H43.375V57Z" fill="#009845"/>
<path fill-rule="evenodd" clip-rule="evenodd" d="M43.3752 21.25V33.625C43.3752 38.1813 39.6816 41.875 35.1252 41.875C30.5689 41.875 26.8752 38.1813 26.8752 33.625V21.25C26.8752 16.6937 30.5689 13 35.1252 13C39.6816 13 43.3752 16.6937 43.3752 21.25ZM29.6252 21.25V33.625C29.6252 36.6626 32.0877 39.125 35.1252 39.125C38.1628 39.125 40.6252 36.6626 40.6252 33.625V21.25C40.6252 18.2124 38.1628 15.75 35.1252 15.75C32.0877 15.75 29.6252 18.2124 29.6252 21.25Z" fill="#009845"/>
<rect x="28.1797" y="15.0073" width="14.0511" height="26.0949" rx="7.02555" fill="#009845"/>
</svg>
