<svg width="70" height="70" viewBox="0 0 70 70" fill="none" xmlns="http://www.w3.org/2000/svg">
<path fill-rule="evenodd" clip-rule="evenodd" d="M43.25 21.25V33.625C43.25 38.1814 39.5563 41.875 35 41.875C30.4437 41.875 26.75 38.1814 26.75 33.625V21.25C26.75 16.6937 30.4437 13 35 13C39.5563 13 43.25 16.6937 43.25 21.25ZM29.5 21.25V33.625C29.5 36.6626 31.9624 39.125 35 39.125C38.0376 39.125 40.5 36.6626 40.5 33.625V21.25C40.5 18.2124 38.0376 15.75 35 15.75C31.9624 15.75 29.5 18.2124 29.5 21.25Z" fill="#808080"/>
<path fill-rule="evenodd" clip-rule="evenodd" d="M19.875 33.625V29.5H22.625V33.625C22.625 40.4595 28.1655 46 35 46C41.8345 46 47.375 40.4595 47.375 33.625V29.5H50.125V33.625C50.125 41.9783 43.3533 48.75 35 48.75C26.6467 48.75 19.875 41.9783 19.875 33.625Z" fill="#808080"/>
<path fill-rule="evenodd" clip-rule="evenodd" d="M33.625 57V47.375H36.375V57H33.625Z" fill="#808080"/>
<path fill-rule="evenodd" clip-rule="evenodd" d="M43.25 57H26.75V54.25H43.25V57Z" fill="#808080"/>
</svg>
