<svg width="30" height="30" viewBox="0 0 30 30" fill="none" xmlns="http://www.w3.org/2000/svg">
<path d="M16.875 3.75C16.875 2.71447 16.0355 1.875 15 1.875C13.9645 1.875 13.125 2.71447 13.125 3.75C13.125 4.78553 13.9645 5.625 15 5.625C16.0355 5.625 16.875 4.78553 16.875 3.75Z" fill="#19426C"/>
<path d="M15 13.125C16.0355 13.125 16.875 13.9645 16.875 15C16.875 16.0355 16.0355 16.875 15 16.875C13.9645 16.875 13.125 16.0355 13.125 15C13.125 13.9645 13.9645 13.125 15 13.125Z" fill="#19426C"/>
<path d="M15 24.375C16.0355 24.375 16.875 25.2145 16.875 26.25C16.875 27.2855 16.0355 28.125 15 28.125C13.9645 28.125 13.125 27.2855 13.125 26.25C13.125 25.2145 13.9645 24.375 15 24.375Z" fill="#19426C"/>
</svg>
