<svg width="69" height="68" viewBox="0 0 69 68" fill="none" xmlns="http://www.w3.org/2000/svg">
<path d="M25.6881 6.89893H12.1589C9.5535 6.89893 7.44141 9.01102 7.44141 11.6164V16.9431C7.44141 19.5485 9.5535 21.6606 12.1589 21.6606H25.6881C28.2935 21.6606 30.4056 19.5485 30.4056 16.9431V11.6164C30.4056 9.01102 28.2935 6.89893 25.6881 6.89893Z" stroke="#54565A" stroke-width="1.5" stroke-linecap="round" stroke-linejoin="round"/>
<path d="M30.4056 48.3083V34.5808C30.4056 31.9741 28.2947 29.8633 25.6881 29.8633H12.1589C9.55224 29.8633 7.44141 31.9741 7.44141 34.5808V44.0158V56.3124C7.44141 58.9191 9.55224 61.03 12.1589 61.03H25.6881C28.2947 61.03 30.4056 58.9191 30.4056 56.3124V48.3083Z" stroke="#54565A" stroke-width="1.5" stroke-linecap="round" stroke-linejoin="round"/>
<path d="M56.8404 46.2686H43.3112C40.7058 46.2686 38.5938 48.3807 38.5938 50.9861V56.3127C38.5938 58.9181 40.7058 61.0302 43.3112 61.0302H56.8404C59.4458 61.0302 61.5579 58.9181 61.5579 56.3127V50.9861C61.5579 48.3807 59.4458 46.2686 56.8404 46.2686Z" stroke="#54565A" stroke-width="1.5" stroke-linecap="round" stroke-linejoin="round"/>
<path d="M61.5579 23.6014V11.6164C61.5579 9.00976 59.4471 6.89893 56.8404 6.89893H43.3112C40.7046 6.89893 38.5938 9.00976 38.5938 11.6164V22.4823V33.3481C38.5938 35.9548 40.7046 38.0656 43.3112 38.0656H56.8404C59.4471 38.0656 61.5579 35.9548 61.5579 33.3481V23.6014Z" stroke="#009845" stroke-width="1.5" stroke-linecap="round" stroke-linejoin="round"/>
</svg>
