<svg width="68" height="68" viewBox="0 0 68 68" fill="none" xmlns="http://www.w3.org/2000/svg">
<path d="M50.647 49.4984C56.3987 49.4984 61.0454 44.88 61.0454 39.185C61.0454 33.49 56.3845 28.8717 50.647 28.8717H48.5645V28.1775C48.5645 23.0634 45.887 18.5725 41.8354 15.9942C41.1554 15.4984 40.1637 14.875 38.8604 14.4217C37.2879 13.8692 35.9137 13.7559 34.9787 13.77C34.8229 13.77 34.667 13.7559 34.497 13.7417C34.327 13.7417 34.1712 13.7417 34.0012 13.7417C25.9545 13.7417 19.4379 20.2017 19.4379 28.1917V28.8859H17.3554C11.6037 28.8859 6.95703 33.5042 6.95703 39.1992C6.95703 44.8942 11.6179 49.5125 17.3554 49.5125H18.6304" stroke="#54565A" stroke-width="1.5" stroke-linecap="round" stroke-linejoin="round"/>
<path d="M23.7734 36.0825V49.64C23.7734 49.64 23.7734 49.7109 23.7734 49.7534C23.7734 52.2467 28.3634 54.2725 34.0159 54.2725C39.6684 54.2725 44.2584 52.2467 44.2584 49.7534V36.0825" stroke="#009845" stroke-width="1.5" stroke-linecap="round" stroke-linejoin="round"/>
<path d="M44.2443 42.6982C44.2443 45.1916 39.6543 47.4016 34.0018 47.2174C28.0518 47.0191 25.6293 46.0274 23.7734 44.8799" stroke="#009845" stroke-width="1.5" stroke-linecap="round" stroke-linejoin="round"/>
<path d="M44.2428 35.6574C44.2428 38.1507 39.6528 40.1765 34.0003 40.1765C28.3478 40.1765 23.7578 38.1507 23.7578 35.6574C23.7578 33.164 28.3478 31.1382 34.0003 31.1382C36.0686 31.1382 37.9811 31.4074 39.5961 31.8749C39.5961 31.8749 44.2428 32.7674 44.2428 35.6574Z" stroke="#009845" stroke-width="1.5" stroke-linecap="round" stroke-linejoin="round"/>
</svg>
