<svg width="26" height="31" viewBox="0 0 26 31" fill="none" xmlns="http://www.w3.org/2000/svg">
<path d="M11.494 16.152V15.9858C11.4983 15.2145 11.5707 14.6009 11.7114 14.1449C11.8562 13.6889 12.0608 13.3224 12.325 13.0455C12.5892 12.7642 12.9109 12.5064 13.2902 12.272C13.5501 12.1101 13.7824 11.9332 13.9869 11.7415C14.1957 11.5455 14.3598 11.3281 14.4791 11.0895C14.5984 10.8466 14.6581 10.576 14.6581 10.2777C14.6581 9.94105 14.5793 9.64915 14.4216 9.40199C14.2639 9.15483 14.0508 8.96307 13.7824 8.8267C13.5182 8.69034 13.222 8.62216 12.8939 8.62216C12.5913 8.62216 12.3037 8.68821 12.031 8.82031C11.7625 8.94815 11.5388 9.14418 11.3598 9.40838C11.1851 9.66832 11.0871 9.99858 11.0658 10.3991H8.79019C8.8115 9.58949 9.00752 8.91193 9.37826 8.36648C9.75326 7.82102 10.2476 7.41193 10.8612 7.1392C11.4791 6.86648 12.1609 6.73011 12.9067 6.73011C13.7206 6.73011 14.4365 6.87287 15.0544 7.15838C15.6766 7.44389 16.1602 7.85085 16.5054 8.37926C16.8548 8.90341 17.0295 9.52557 17.0295 10.2457C17.0295 10.7315 16.9507 11.1662 16.793 11.5497C16.6396 11.9332 16.4202 12.2741 16.1347 12.5724C15.8491 12.8707 15.5104 13.1371 15.1183 13.3714C14.7731 13.5845 14.4898 13.8061 14.2682 14.0362C14.0508 14.2663 13.8889 14.5369 13.7824 14.848C13.6801 15.1548 13.6268 15.5341 13.6226 15.9858V16.152H11.494ZM12.6062 20.1406C12.2227 20.1406 11.8925 20.0043 11.6155 19.7315C11.3385 19.4588 11.2 19.1264 11.2 18.7344C11.2 18.3509 11.3385 18.0227 11.6155 17.75C11.8925 17.4773 12.2227 17.3409 12.6062 17.3409C12.9855 17.3409 13.3136 17.4773 13.5906 17.75C13.8719 18.0227 14.0125 18.3509 14.0125 18.7344C14.0125 18.9943 13.9464 19.2308 13.8143 19.4439C13.6865 19.657 13.516 19.8274 13.303 19.9553C13.0942 20.0788 12.8619 20.1406 12.6062 20.1406Z" fill="#19426C"/>
<path d="M9.35479 24C4.68926 23.2414 2.85478 19 2.35479 16.5C1.74209 13.4365 2.35714 9.5 3.5 7.5C4.64286 5.5 7.14614 2.00058 12.849 2.00061C18.5519 2.00064 23.314 5.39246 24.349 11.0006C24.6325 12.5368 24.4185 14.7194 23.849 17.0006C22.4964 22.419 14.8548 27.5 14.8548 27.5V24C14.8548 24 10.8966 24.2507 9.35479 24Z" stroke="#19426C" stroke-width="3"/>
</svg>
