<svg width="26" height="31" viewBox="0 0 26 31" fill="none" xmlns="http://www.w3.org/2000/svg">
<path d="M11.3808 16.152V15.9858C11.3851 15.2145 11.4575 14.6009 11.5981 14.1449C11.743 13.6889 11.9476 13.3224 12.2118 13.0455C12.476 12.7642 12.7977 12.5064 13.177 12.272C13.4369 12.1101 13.6691 11.9332 13.8737 11.7415C14.0825 11.5455 14.2466 11.3281 14.3659 11.0895C14.4852 10.8466 14.5449 10.576 14.5449 10.2777C14.5449 9.94105 14.466 9.64915 14.3083 9.40199C14.1507 9.15483 13.9376 8.96307 13.6691 8.8267C13.4049 8.69034 13.1088 8.62216 12.7807 8.62216C12.4781 8.62216 12.1905 8.68821 11.9177 8.82031C11.6493 8.94815 11.4255 9.14418 11.2466 9.40838C11.0718 9.66832 10.9738 9.99858 10.9525 10.3991H8.67696C8.69826 9.58949 8.89429 8.91193 9.26503 8.36648C9.64003 7.82102 10.1343 7.41193 10.748 7.1392C11.3659 6.86648 12.0477 6.73011 12.7934 6.73011C13.6074 6.73011 14.3233 6.87287 14.9412 7.15838C15.5633 7.44389 16.047 7.85085 16.3922 8.37926C16.7416 8.90341 16.9163 9.52557 16.9163 10.2457C16.9163 10.7315 16.8375 11.1662 16.6798 11.5497C16.5264 11.9332 16.3069 12.2741 16.0214 12.5724C15.7359 12.8707 15.3971 13.1371 15.0051 13.3714C14.6599 13.5845 14.3765 13.8061 14.1549 14.0362C13.9376 14.2663 13.7757 14.5369 13.6691 14.848C13.5669 15.1548 13.5136 15.5341 13.5093 15.9858V16.152H11.3808ZM12.493 20.1406C12.1095 20.1406 11.7792 20.0043 11.5022 19.7315C11.2253 19.4588 11.0868 19.1264 11.0868 18.7344C11.0868 18.3509 11.2253 18.0227 11.5022 17.75C11.7792 17.4773 12.1095 17.3409 12.493 17.3409C12.8723 17.3409 13.2004 17.4773 13.4774 17.75C13.7586 18.0227 13.8993 18.3509 13.8993 18.7344C13.8993 18.9943 13.8332 19.2308 13.7011 19.4439C13.5733 19.657 13.4028 19.8274 13.1897 19.9553C12.9809 20.0788 12.7487 20.1406 12.493 20.1406Z" fill="#A7A7A7"/>
<path d="M9.24155 24C4.57603 23.2414 2.74155 19 2.24155 16.5C1.62886 13.4365 2.2439 9.5 3.38676 7.5C4.52962 5.5 7.03291 2.00058 12.7358 2.00061C18.4386 2.00064 23.2008 5.39246 24.2358 11.0006C24.5193 12.5368 24.3052 14.7194 23.7358 17.0006C22.3831 22.419 14.7415 27.5 14.7415 27.5V24C14.7415 24 10.7834 24.2507 9.24155 24Z" stroke="#A7A7A7" stroke-width="3"/>
</svg>
