<svg width="16" height="16" viewBox="0 0 16 16" fill="none" xmlns="http://www.w3.org/2000/svg">
<g clip-path="url(#clip0_16_21)">
<path fill-rule="evenodd" clip-rule="evenodd" d="M9.05742 11.1637C8.16205 11.695 7.11665 12 6 12C2.68629 12 0 9.31371 0 6C0 2.68629 2.68629 0 6 0C9.31371 0 12 2.68629 12 6C12 7.11273 11.6971 8.15471 11.1693 9.04798C11.1874 9.06141 11.2048 9.07621 11.2214 9.0924L15.3974 13.172C15.7957 13.5612 15.7994 14.2007 15.4057 14.5945L14.6989 15.3013C14.3116 15.6886 13.6848 15.6922 13.293 15.3095L9.10848 11.2218C9.08971 11.2035 9.07269 11.184 9.05742 11.1637ZM10.5 6C10.5 3.51472 8.48528 1.5 6 1.5C3.51472 1.5 1.5 3.51472 1.5 6C1.5 8.48528 3.51472 10.5 6 10.5C8.48528 10.5 10.5 8.48528 10.5 6Z" fill="#767676"/>
</g>
<defs>
<clipPath id="clip0_16_21">
<rect width="16" height="16" fill="white"/>
</clipPath>
</defs>
</svg>
