<svg width="45" height="45" viewBox="0 0 45 45" fill="none" xmlns="http://www.w3.org/2000/svg">
<rect x="0.588867" y="2.03302" width="44.1351" height="40.8353" rx="20.4176" fill="#808080"/>
<path fill-rule="evenodd" clip-rule="evenodd" d="M23.0791 3.06503C33.6223 3.06503 42.2599 11.7026 42.2599 22.2458C42.2599 32.789 33.6223 41.4266 23.0791 41.4266C12.5359 41.4266 3.89834 32.789 3.89834 22.2458C3.89834 11.7026 12.5359 3.06503 23.0791 3.06503Z" fill="#404040"/>
<path fill-rule="evenodd" clip-rule="evenodd" d="M23.0791 0.324915C11.0226 0.324916 1.15823 10.1893 1.15823 22.2458C1.15823 34.3023 11.0226 44.1667 23.0791 44.1667C35.1356 44.1667 45 34.3023 45 22.2458C45 10.1893 35.1356 0.324914 23.0791 0.324915Z" fill="#808080"/>
<path fill-rule="evenodd" clip-rule="evenodd" d="M24.4493 15.6342L24.4493 33.2062L21.7092 33.2062L21.7092 15.6342L14.3805 21.916L12.5973 19.8355L23.0793 10.8509L33.5613 19.8355L31.778 21.916L24.4493 15.6342Z" fill="white"/>
</svg>
