<svg width="15" height="15" viewBox="0 0 15 15" fill="none" xmlns="http://www.w3.org/2000/svg">
<path d="M7.9375 2.08154V12.9175L7.46289 13.3921L3.125 9.92236L2.98828 9.81201H0.9375C0.695876 9.81201 0.5 9.61614 0.5 9.37451V5.62451C0.500212 5.38307 0.696006 5.18701 0.9375 5.18701H2.98828L3.125 5.07764L7.46289 1.60693L7.9375 2.08154Z" stroke="#19426C"/>
<mask id="path-2-inside-1_747_954" fill="white">
<path d="M15 7.49988C15 4.02522 13.0102 2.0347 12.519 1.54342C12.3359 1.36036 12.0391 1.36036 11.856 1.54342C11.673 1.72648 11.673 2.02328 11.856 2.20633C12.3028 2.65309 14.0625 4.41279 14.0625 7.49988C14.0625 10.587 12.3031 12.3463 11.8564 12.7931C11.6733 12.9762 11.673 13.2733 11.856 13.4563C12.0391 13.6394 12.3359 13.6394 12.519 13.4563C13.0102 12.9651 15 10.9745 15 7.49988Z"/>
<path d="M10.4567 4.08862C10.464 4.09632 10.476 4.10922 10.4921 4.12722C10.5243 4.16324 10.5726 4.21952 10.6318 4.29512C10.7503 4.44653 10.9112 4.67411 11.0728 4.97043C11.3962 5.56323 11.7187 6.42386 11.7187 7.49988C11.7187 8.5759 11.3962 9.43653 11.0728 10.0293C10.9112 10.3256 10.7503 10.5532 10.6318 10.7046C10.5726 10.7802 10.5243 10.8365 10.4921 10.8725C10.476 10.8905 10.464 10.9034 10.4567 10.9111L10.4492 10.919C10.2667 11.1021 10.2669 11.3985 10.4498 11.5813C10.6328 11.7644 10.9302 11.7638 11.1133 11.5807L11.114 11.58L11.1159 11.5781L11.1211 11.5728L11.1373 11.5559C11.1506 11.5418 11.1688 11.5222 11.1912 11.4972C11.2359 11.4472 11.2974 11.3753 11.3701 11.2824C11.5153 11.0969 11.7059 10.8265 11.8959 10.4782C12.2756 9.78198 12.6562 8.76761 12.6562 7.49988C12.6562 6.23215 12.2756 5.21778 11.8959 4.52151C11.7059 4.1733 11.5153 3.90283 11.3701 3.71733C11.2974 3.62448 11.2359 3.55258 11.1912 3.50254C11.1688 3.47751 11.1506 3.45791 11.1373 3.44386L11.1211 3.42695L11.1159 3.42163L11.114 3.41976L11.1127 3.41842C10.9296 3.23536 10.6328 3.23536 10.4498 3.41842C10.2668 3.6014 10.2666 3.89794 10.4494 4.08101L10.4567 4.08862Z"/>
</mask>
<path d="M12.519 1.54342L13.2261 0.836315L13.2261 0.836313L12.519 1.54342ZM11.856 1.54342L11.1489 0.836313L11.1489 0.836315L11.856 1.54342ZM11.856 2.20633L11.1489 2.91344L11.1489 2.91344L11.856 2.20633ZM11.8564 12.7931L11.1493 12.086L11.1493 12.086L11.8564 12.7931ZM11.856 13.4563L11.1489 14.1634L11.1489 14.1634L11.856 13.4563ZM12.519 13.4563L13.2261 14.1634L13.2261 14.1634L12.519 13.4563ZM10.4921 4.12722L9.74645 4.79354L9.74648 4.79356L10.4921 4.12722ZM10.4567 4.08862L11.1827 3.40088L11.1787 3.39675L10.4567 4.08862ZM10.6318 4.29512L11.4193 3.67881L11.4193 3.67881L10.6318 4.29512ZM11.0728 4.97043L11.9507 4.49158L11.9507 4.49158L11.0728 4.97043ZM11.0728 10.0293L11.9507 10.5082L11.9507 10.5082L11.0728 10.0293ZM10.6318 10.7046L9.84431 10.0883L9.84431 10.0883L10.6318 10.7046ZM10.4921 10.8725L9.74648 10.2062L9.74646 10.2062L10.4921 10.8725ZM10.4567 10.9111L11.1789 11.6029L11.1827 11.5989L10.4567 10.9111ZM10.4492 10.919L11.1575 11.6249L11.1645 11.6179L11.1714 11.6107L10.4492 10.919ZM10.4498 11.5813L9.74266 12.2884L9.74267 12.2884L10.4498 11.5813ZM11.1133 11.5807L11.8204 12.2878L11.8222 12.286L11.1133 11.5807ZM11.114 11.58L11.823 12.2853L11.8246 12.2836L11.114 11.58ZM11.1159 11.5781L11.8264 12.2818L11.8301 12.2781L11.1159 11.5781ZM11.1211 11.5728L11.8353 12.2728L11.8427 12.2651L11.1211 11.5728ZM11.1373 11.5559L11.8589 12.2482L11.8633 12.2436L11.1373 11.5559ZM11.1912 11.4972L10.4455 10.8309L10.4455 10.8309L11.1912 11.4972ZM11.3701 11.2824L10.5826 10.6661L10.5826 10.6661L11.3701 11.2824ZM11.8959 10.4782L11.018 9.99939L11.018 9.99939L11.8959 10.4782ZM11.8959 4.52151L11.018 5.00036L11.018 5.00036L11.8959 4.52151ZM11.3701 3.71733L10.5826 4.33364L10.5826 4.33364L11.3701 3.71733ZM11.1912 3.50254L10.4455 4.16886L10.4455 4.16887L11.1912 3.50254ZM11.1373 3.44386L11.8633 2.7561L11.8589 2.75152L11.1373 3.44386ZM11.1211 3.42695L11.8427 2.73457L11.8353 2.72704L11.1211 3.42695ZM11.1159 3.42163L11.8301 2.72171L11.8264 2.71798L11.1159 3.42163ZM11.114 3.41976L11.8246 2.71611L11.8226 2.71417L11.114 3.41976ZM11.1127 3.41842L11.8213 2.71282L11.8198 2.71131L11.1127 3.41842ZM10.4498 3.41842L9.74267 2.71131L9.74266 2.71132L10.4498 3.41842ZM10.4494 4.08101L11.1715 3.38914L11.1643 3.38171L11.1571 3.37444L10.4494 4.08101ZM12.519 1.54342L11.8118 2.25053C12.2551 2.69383 14 4.43789 14 7.49988H15H16C16 3.61254 13.7653 1.37557 13.2261 0.836315L12.519 1.54342ZM11.856 1.54342L12.5631 2.25053C12.3557 2.45799 12.0193 2.45799 11.8118 2.25053L12.519 1.54342L13.2261 0.836313C12.6525 0.262733 11.7225 0.262733 11.1489 0.836313L11.856 1.54342ZM11.856 2.20633L12.5631 1.49923C12.7706 1.70669 12.7706 2.04306 12.5631 2.25053L11.856 1.54342L11.1489 0.836315C10.5754 1.4099 10.5753 2.33986 11.1489 2.91344L11.856 2.20633ZM14.0625 7.49988H15.0625C15.0625 4.00032 13.0581 1.99422 12.5631 1.49923L11.856 2.20633L11.1489 2.91344C11.5474 3.31195 13.0625 4.82526 13.0625 7.49988H14.0625ZM11.8564 12.7931L12.5635 13.5002C13.0585 13.0052 15.0625 10.9994 15.0625 7.49988H14.0625H13.0625C13.0625 10.1745 11.5477 11.6875 11.1493 12.086L11.8564 12.7931ZM11.856 13.4563L12.5631 12.7492C12.7715 12.9576 12.77 13.2936 12.5635 13.5002L11.8564 12.7931L11.1493 12.086C10.5766 12.6587 10.5744 13.589 11.1489 14.1634L11.856 13.4563ZM12.519 13.4563L11.8118 12.7492C12.0193 12.5418 12.3557 12.5418 12.5631 12.7492L11.856 13.4563L11.1489 14.1634C11.7225 14.737 12.6525 14.737 13.2261 14.1634L12.519 13.4563ZM15 7.49988H14C14 10.5619 12.2551 12.3059 11.8118 12.7492L12.519 13.4563L13.2261 14.1634C13.7653 13.6242 16 11.3872 16 7.49988H15ZM10.4921 4.12722L11.2378 3.46091C11.215 3.43539 11.1964 3.41535 11.1827 3.40089L10.4567 4.08862L9.73077 4.77636C9.73165 4.77729 9.73709 4.78306 9.74645 4.79354L10.4921 4.12722ZM10.6318 4.29512L11.4193 3.67881C11.3457 3.58481 11.2833 3.51187 11.2378 3.46089L10.4921 4.12722L9.74648 4.79356C9.76529 4.81462 9.79954 4.85423 9.84431 4.91143L10.6318 4.29512ZM11.0728 4.97043L11.9507 4.49158C11.7589 4.13991 11.5663 3.86658 11.4193 3.67881L10.6318 4.29512L9.8443 4.91143C9.93435 5.02648 10.0635 5.20831 10.1949 5.44929L11.0728 4.97043ZM11.7187 7.49988H12.7187C12.7187 6.21942 12.3343 5.19481 11.9507 4.49158L11.0728 4.97043L10.1949 5.44929C10.4581 5.93165 10.7187 6.6283 10.7187 7.49988H11.7187ZM11.0728 10.0293L11.9507 10.5082C12.3343 9.80495 12.7187 8.78034 12.7187 7.49988H11.7187H10.7187C10.7187 8.37146 10.4581 9.06811 10.1949 9.55047L11.0728 10.0293ZM10.6318 10.7046L11.4193 11.3209C11.5663 11.1332 11.7589 10.8598 11.9507 10.5082L11.0728 10.0293L10.1949 9.55047C10.0635 9.79144 9.93435 9.97327 9.84431 10.0883L10.6318 10.7046ZM10.4921 10.8725L11.2378 11.5389C11.2833 11.4879 11.3458 11.4149 11.4193 11.3209L10.6318 10.7046L9.84431 10.0883C9.79954 10.1455 9.76529 10.1851 9.74648 10.2062L10.4921 10.8725ZM10.4567 10.9111L11.1827 11.5989C11.1964 11.5844 11.215 11.5644 11.2378 11.5389L10.4921 10.8725L9.74646 10.2062C9.73708 10.2167 9.73164 10.2225 9.73078 10.2234L10.4567 10.9111ZM10.4492 10.919L11.1714 11.6107L11.1789 11.6028L10.4567 10.9111L9.73456 10.2194L9.72704 10.2273L10.4492 10.919ZM10.4498 11.5813L11.1569 10.8742C11.3641 11.0815 11.3643 11.4174 11.1575 11.6249L10.4492 10.919L9.74094 10.213C9.16908 10.7868 9.16966 11.7154 9.74266 12.2884L10.4498 11.5813ZM11.1133 11.5807L10.4062 10.8736C10.612 10.6678 10.9477 10.6651 11.1569 10.8742L10.4498 11.5813L9.74267 12.2884C10.3179 12.8637 11.2485 12.8597 11.8204 12.2878L11.1133 11.5807ZM11.114 11.58L10.4051 10.8747L10.4044 10.8755L11.1133 11.5807L11.8222 12.286L11.823 12.2853L11.114 11.58ZM11.1159 11.5781L10.4053 10.8745L10.4035 10.8763L11.114 11.58L11.8246 12.2836L11.8264 12.2818L11.1159 11.5781ZM11.1211 11.5728L10.4069 10.8728L10.4017 10.8782L11.1159 11.5781L11.8301 12.2781L11.8353 12.2728L11.1211 11.5728ZM11.1373 11.5559L10.4157 10.8636L10.3995 10.8805L11.1211 11.5728L11.8427 12.2651L11.8589 12.2482L11.1373 11.5559ZM11.1912 11.4972L10.4455 10.8309C10.4299 10.8484 10.4183 10.8609 10.4114 10.8681L11.1373 11.5559L11.8633 12.2436C11.883 12.2228 11.9078 12.1961 11.9368 12.1635L11.1912 11.4972ZM11.3701 11.2824L10.5826 10.6661C10.5243 10.7406 10.4769 10.7958 10.4455 10.8309L11.1912 11.4972L11.9368 12.1636C11.9949 12.0985 12.0705 12.01 12.1576 11.8987L11.3701 11.2824ZM11.8959 10.4782L11.018 9.99939C10.8582 10.2923 10.6993 10.517 10.5826 10.6661L11.3701 11.2824L12.1576 11.8987C12.3312 11.6769 12.5536 11.3607 12.7738 10.9571L11.8959 10.4782ZM12.6562 7.49988H11.6562C11.6562 8.56307 11.3376 9.41345 11.018 9.99939L11.8959 10.4782L12.7738 10.9571C13.2137 10.1505 13.6562 8.97215 13.6562 7.49988H12.6562ZM11.8959 4.52151L11.018 5.00036C11.3376 5.58631 11.6562 6.43668 11.6562 7.49988H12.6562H13.6562C13.6562 6.02761 13.2137 4.84925 12.7738 4.04266L11.8959 4.52151ZM11.3701 3.71733L10.5826 4.33364C10.6993 4.48278 10.8582 4.7075 11.018 5.00036L11.8959 4.52151L12.7738 4.04266C12.5536 3.6391 12.3312 3.32289 12.1576 3.10102L11.3701 3.71733ZM11.1912 3.50254L10.4455 4.16887C10.4769 4.20395 10.5243 4.25918 10.5826 4.33364L11.3701 3.71733L12.1576 3.10102C12.0705 2.98977 11.9949 2.90121 11.9368 2.8362L11.1912 3.50254ZM11.1373 3.44386L10.4114 4.13161C10.4183 4.13889 10.4299 4.15134 10.4455 4.16886L11.1912 3.50254L11.9368 2.83621C11.9078 2.80367 11.883 2.77694 11.8633 2.75611L11.1373 3.44386ZM11.1211 3.42695L10.3995 4.1193L10.4157 4.13621L11.1373 3.44386L11.8589 2.75152L11.8426 2.7346L11.1211 3.42695ZM11.1159 3.42163L10.4016 4.12155L10.4069 4.12687L11.1211 3.42695L11.8353 2.72704L11.8301 2.72172L11.1159 3.42163ZM11.114 3.41976L10.4035 4.12342L10.4053 4.12529L11.1159 3.42163L11.8264 2.71798L11.8246 2.71611L11.114 3.41976ZM11.1127 3.41842L10.4041 4.12402L10.4054 4.12536L11.114 3.41976L11.8226 2.71417L11.8213 2.71283L11.1127 3.41842ZM10.4498 3.41842L11.1569 4.12553C10.9494 4.33299 10.613 4.33299 10.4056 4.12553L11.1127 3.41842L11.8198 2.71131C11.2462 2.13773 10.3162 2.13773 9.74267 2.71131L10.4498 3.41842ZM10.4494 4.08101L11.1571 3.37444C11.3645 3.58216 11.364 3.91837 11.1569 4.12553L10.4498 3.41842L9.74266 2.71132C9.16957 3.28442 9.16878 4.21371 9.7418 4.78759L10.4494 4.08101ZM10.4567 4.08862L11.1787 3.39675L11.1715 3.38914L10.4494 4.08101L9.72743 4.77289L9.73472 4.7805L10.4567 4.08862Z" fill="#19426C" mask="url(#path-2-inside-1_747_954)"/>
</svg>
