<svg width="68" height="68" viewBox="0 0 68 68" fill="none" xmlns="http://www.w3.org/2000/svg">
<path d="M36.818 60.0809C36.818 61.6392 35.5572 62.9001 33.9989 62.9001C32.4405 62.9001 31.1797 61.6392 31.1797 60.0809C31.1797 58.5226 32.4405 57.2617 33.9989 57.2617C35.5572 57.2617 36.818 58.5226 36.818 60.0809Z" stroke="#54565A" stroke-width="1.5" stroke-linecap="round" stroke-linejoin="round"/>
<path d="M36.818 7.9051C36.818 9.46344 35.5572 10.7243 33.9989 10.7243C32.4405 10.7243 31.1797 9.46344 31.1797 7.9051C31.1797 6.34677 32.4405 5.08594 33.9989 5.08594C35.5572 5.08594 36.818 6.34677 36.818 7.9051Z" stroke="#54565A" stroke-width="1.5" stroke-linecap="round" stroke-linejoin="round"/>
<path d="M10.7399 33.9998C10.7399 35.5582 9.47906 36.819 7.92073 36.819C6.3624 36.819 5.10156 35.5582 5.10156 33.9998C5.10156 32.4415 6.3624 31.1807 7.92073 31.1807C9.47906 31.1807 10.7399 32.4415 10.7399 33.9998Z" stroke="#54565A" stroke-width="1.5" stroke-linecap="round" stroke-linejoin="round"/>
<path d="M62.9157 33.9998C62.9157 35.5582 61.6548 36.819 60.0965 36.819C58.5382 36.819 57.2773 35.5582 57.2773 33.9998C57.2773 32.4415 58.5382 31.1807 60.0965 31.1807C61.6548 31.1807 62.9157 32.4415 62.9157 33.9998Z" stroke="#54565A" stroke-width="1.5" stroke-linecap="round" stroke-linejoin="round"/>
<path d="M17.7362 50.6319C18.8554 51.7227 18.8696 53.5077 17.7787 54.6269C16.6879 55.7319 14.9029 55.7602 13.7837 54.6694C12.6646 53.5785 12.6504 51.7935 13.7412 50.6744C14.8321 49.5552 16.6171 49.541 17.7362 50.6319Z" stroke="#54565A" stroke-width="1.5" stroke-linecap="round" stroke-linejoin="round"/>
<path d="M54.2168 13.3307C55.336 14.4216 55.3502 16.2066 54.2593 17.3257C53.1685 18.4307 51.3835 18.4591 50.2785 17.3682C49.1735 16.2774 49.1452 14.4924 50.236 13.3732C51.3268 12.2682 53.1118 12.2399 54.231 13.3307H54.2168Z" stroke="#54565A" stroke-width="1.5" stroke-linecap="round" stroke-linejoin="round"/>
<path d="M50.4459 50.4475C51.5509 49.3567 53.3359 49.3567 54.4409 50.4475C55.5459 51.5384 55.5459 53.3375 54.4409 54.4425C53.3359 55.5334 51.5509 55.5334 50.4459 54.4425C49.3409 53.3517 49.3409 51.5525 50.4459 50.4475Z" stroke="#54565A" stroke-width="1.5" stroke-linecap="round" stroke-linejoin="round"/>
<path d="M13.5592 13.5574C14.6642 12.4665 16.4492 12.4665 17.5542 13.5574C18.6592 14.6482 18.6592 16.4474 17.5542 17.5524C16.4492 18.6432 14.6642 18.6432 13.5592 17.5524C12.4542 16.4616 12.4542 14.6624 13.5592 13.5574Z" stroke="#54565A" stroke-width="1.5" stroke-linecap="round" stroke-linejoin="round"/>
<path d="M33.9001 29.3252C31.3784 29.3252 29.3242 31.3794 29.3242 33.901C29.3242 36.4227 31.3642 38.4769 33.9001 38.4769C36.4359 38.4769 38.4759 36.4227 38.4759 33.901C38.4759 31.3794 36.4217 29.3252 33.9001 29.3252Z" stroke="#009845" stroke-width="1.5" stroke-linecap="round" stroke-linejoin="round"/>
<path d="M33.8164 53.876V43.1235" stroke="#54565A" stroke-width="1.5" stroke-linecap="round" stroke-linejoin="round"/>
<path d="M30.5859 45.971L33.8159 43.1235" stroke="#54565A" stroke-width="1.5" stroke-linecap="round" stroke-linejoin="round"/>
<path d="M33.7891 43.1235L37.0191 45.971" stroke="#54565A" stroke-width="1.5" stroke-linecap="round" stroke-linejoin="round"/>
<path d="M33.7891 14.3364V25.0748" stroke="#54565A" stroke-width="1.5" stroke-linecap="round" stroke-linejoin="round"/>
<path d="M37.0191 22.2271L33.7891 25.0746" stroke="#54565A" stroke-width="1.5" stroke-linecap="round" stroke-linejoin="round"/>
<path d="M33.8159 25.0746L30.5859 22.2271" stroke="#54565A" stroke-width="1.5" stroke-linecap="round" stroke-linejoin="round"/>
<path d="M19.832 48.0958L27.4254 40.5024" stroke="#54565A" stroke-width="1.5" stroke-linecap="round" stroke-linejoin="round"/>
<path d="M23.1328 40.2334L27.4253 40.5026" stroke="#54565A" stroke-width="1.5" stroke-linecap="round" stroke-linejoin="round"/>
<path d="M27.4102 40.4741L27.6793 44.7666" stroke="#54565A" stroke-width="1.5" stroke-linecap="round" stroke-linejoin="round"/>
<path d="M47.7691 20.1167L40.1758 27.71" stroke="#54565A" stroke-width="1.5" stroke-linecap="round" stroke-linejoin="round"/>
<path d="M44.4683 27.9791L40.1758 27.71" stroke="#54565A" stroke-width="1.5" stroke-linecap="round" stroke-linejoin="round"/>
<path d="M40.191 27.7383L39.9219 23.4316" stroke="#54565A" stroke-width="1.5" stroke-linecap="round" stroke-linejoin="round"/>
<path d="M14.0391 34.1274H24.7774" stroke="#54565A" stroke-width="1.5" stroke-linecap="round" stroke-linejoin="round"/>
<path d="M21.9297 30.8975L24.7772 34.1275" stroke="#54565A" stroke-width="1.5" stroke-linecap="round" stroke-linejoin="round"/>
<path d="M24.7772 34.085L21.9297 37.315" stroke="#54565A" stroke-width="1.5" stroke-linecap="round" stroke-linejoin="round"/>
<path d="M53.5626 34.085H42.8242" stroke="#54565A" stroke-width="1.5" stroke-linecap="round" stroke-linejoin="round"/>
<path d="M45.6717 37.315L42.8242 34.085" stroke="#54565A" stroke-width="1.5" stroke-linecap="round" stroke-linejoin="round"/>
<path d="M42.8242 34.1275L45.6717 30.8975" stroke="#54565A" stroke-width="1.5" stroke-linecap="round" stroke-linejoin="round"/>
<path d="M19.8203 20.145L27.4136 27.7384" stroke="#54565A" stroke-width="1.5" stroke-linecap="round" stroke-linejoin="round"/>
<path d="M27.6832 23.4316L27.4141 27.7383" stroke="#54565A" stroke-width="1.5" stroke-linecap="round" stroke-linejoin="round"/>
<path d="M27.4292 27.71L23.1367 27.9791" stroke="#54565A" stroke-width="1.5" stroke-linecap="round" stroke-linejoin="round"/>
<path d="M47.7847 48.0675L40.1914 40.4741" stroke="#54565A" stroke-width="1.5" stroke-linecap="round" stroke-linejoin="round"/>
<path d="M39.9219 44.7666L40.191 40.4741" stroke="#54565A" stroke-width="1.5" stroke-linecap="round" stroke-linejoin="round"/>
<path d="M40.1758 40.5026L44.4683 40.2334" stroke="#54565A" stroke-width="1.5" stroke-linecap="round" stroke-linejoin="round"/>
</svg>
