<svg width="17" height="17" viewBox="0 0 17 17" fill="none" xmlns="http://www.w3.org/2000/svg">
<path d="M9.0625 2.33252V14.6675L8.46191 15.2671L3.5 11.2974L3.36328 11.188H1.0625C0.751996 11.188 0.500252 10.9359 0.5 10.6255V6.37549C0.5 6.06483 0.75184 5.81299 1.0625 5.81299H3.36328L3.5 5.70264L8.46191 1.73193L9.0625 2.33252ZM13.835 2.10303C14.3681 2.6362 16.5 4.76941 16.5 8.50049C16.4998 12.2312 14.3682 14.3638 13.835 14.897C13.8228 14.9092 13.8022 14.9092 13.79 14.897C13.7786 14.8852 13.7786 14.8656 13.791 14.853C14.3215 14.3226 16.4373 12.2051 16.4375 8.50049C16.4375 4.79555 14.3205 2.67741 13.79 2.14697C13.7782 2.13483 13.7781 2.11516 13.79 2.10303C13.8022 2.09082 13.8228 2.09082 13.835 2.10303ZM12.2402 4.22705V4.22803L12.2422 4.22998V4.229L12.2598 4.24658V4.24756C12.2716 4.26009 12.2888 4.27892 12.3105 4.30322C12.3545 4.35241 12.4172 4.42523 12.4922 4.521C12.6425 4.71302 12.8428 4.99689 13.043 5.36377C13.4433 6.09771 13.8438 7.166 13.8438 8.50049C13.8437 9.83477 13.4433 10.9024 13.043 11.6362C12.8428 12.0031 12.6425 12.287 12.4922 12.479C12.4172 12.5748 12.3545 12.6476 12.3105 12.6968L12.2617 12.7505L12.2471 12.7661L12.2422 12.77L12.2412 12.771C12.2282 12.784 12.2077 12.7833 12.1963 12.772C12.1905 12.766 12.1876 12.7582 12.1875 12.7505L12.1963 12.728L12.2139 12.7104C12.2253 12.6984 12.2422 12.6798 12.2637 12.6558C12.3068 12.6075 12.3691 12.5348 12.4434 12.4399C12.5919 12.2502 12.7901 11.9693 12.9883 11.606C13.3848 10.879 13.7812 9.82186 13.7812 8.50049C13.7812 7.17888 13.3848 6.12109 12.9883 5.39404C12.7901 5.0307 12.5919 4.74983 12.4434 4.56006C12.3691 4.46517 12.3068 4.39254 12.2637 4.34424C12.2423 4.32034 12.2253 4.30257 12.2139 4.29053L12.2119 4.2876L12.2041 4.27979V4.27881L12.1963 4.27197C12.1844 4.25994 12.1843 4.2403 12.1963 4.22803C12.2082 4.21607 12.228 4.21557 12.2402 4.22705Z" stroke="#404040"/>
</svg>
